<?xml version="1.0" encoding="UTF-8"?>
<svg version="1.1" xmlns="http://www.w3.org/2000/svg" width="500" height="500">
<path d="M0 0 C165 0 330 0 500 0 C500 165 500 330 500 500 C335 500 170 500 0 500 C0 335 0 170 0 0 Z " fill="#E00413" transform="translate(0,0)"/>
<path d="M0 0 C1.46114374 0.0093544 2.92230343 0.01645804 4.38346863 0.0214386 C8.18300598 0.04030278 11.98154938 0.08921712 15.78070068 0.1449585 C19.67592939 0.19660308 23.57132266 0.2190479 27.46679688 0.24414062 C35.07596831 0.29736324 42.68432797 0.38241564 50.29296875 0.48828125 C50.00101682 2.36795876 49.7029202 4.24668233 49.40234375 6.125 C49.23702148 7.17131592 49.07169922 8.21763184 48.90136719 9.2956543 C48.09981715 13.50186211 46.81139615 17.47045919 45.49609375 21.5390625 C43.89579456 26.63425239 42.61780037 31.81621486 41.29296875 36.98828125 C39.48330835 44.03238998 37.56712074 50.99593834 35.35546875 57.92578125 C33.86813862 62.91271169 32.58816806 67.94854531 31.29296875 72.98828125 C29.48268778 80.03224583 27.56713258 86.99590126 25.35546875 93.92578125 C23.86813847 98.91271218 22.58817871 103.94854755 21.29296875 108.98828125 C19.46234048 116.11086223 17.52561746 123.15693027 15.30078125 130.16796875 C13.97316229 134.54190717 12.77977495 138.94603467 11.60546875 143.36328125 C11.28340454 144.55969238 11.28340454 144.55969238 10.95483398 145.78027344 C6.91892485 161.13704475 5.98031901 177.91328177 13.2734375 192.44140625 C18.48993292 200.8729662 26.33493055 205.6491781 35.53633881 208.62976837 C43.22467235 210.38680419 51.07374496 210.05742933 58.92285156 210.03417969 C60.88519607 210.04292765 62.84753346 210.05341767 64.80986023 210.06550598 C70.10449268 210.09323668 75.39889089 210.09677353 80.6935854 210.09578609 C86.23895252 210.09892634 91.78421586 210.12456765 97.32952881 210.14776611 C107.81579576 210.18824462 118.30200065 210.20864766 128.78833365 210.22174001 C140.73281748 210.23763769 152.6771961 210.27606497 164.62161875 210.31633329 C189.17870006 210.3986207 213.73577836 210.45278249 238.29296875 210.48828125 C235.79031135 219.71990234 230.36874611 227.16412965 222.29296875 232.48828125 C212.41168646 237.54576188 202.13672887 238.79094234 191.17321777 238.74897766 C190.09775491 238.75280321 189.02229205 238.75662876 187.91423941 238.76057023 C184.33405165 238.77083521 180.75402622 238.76692047 177.17382812 238.76293945 C174.59747673 238.76728946 172.02112663 238.77247357 169.44477844 238.77842712 C163.18761788 238.79113703 156.9305003 238.79297254 150.673329 238.79062686 C145.5854524 238.78883974 140.49758879 238.79060177 135.40971375 238.7948513 C134.32119693 238.79574409 134.32119693 238.79574409 133.21068987 238.79665491 C131.73623152 238.79786672 130.26177318 238.79908086 128.78731483 238.80029728 C114.9794768 238.81115808 101.17166323 238.80901699 87.36382383 238.80291244 C74.74529152 238.79774198 62.12683637 238.80900472 49.50831932 238.82801066 C36.53314476 238.84740316 23.55800669 238.85564275 10.58281755 238.8518874 C3.30556732 238.84997784 -3.97161721 238.85243925 -11.24885559 238.86660194 C-18.09105903 238.87978401 -24.93310558 238.87723663 -31.77530861 238.86419106 C-34.28348149 238.86182579 -36.79166526 238.86455814 -39.29982567 238.87281418 C-42.72915602 238.88328692 -46.15796832 238.87517618 -49.58728027 238.86250305 C-50.57465006 238.86987734 -51.56201985 238.87725162 -52.57930994 238.88484937 C-63.80232842 238.79787098 -73.24386242 235.62037461 -81.4609375 227.82421875 C-89.54324731 218.95190873 -91.43992622 209.40017991 -91.18359375 197.6015625 C-90.62353663 188.62127558 -87.35706679 180.08635917 -84.65185547 171.57128906 C-83.14954122 166.6691639 -81.89865902 161.70859205 -80.64453125 156.73828125 C-78.61167334 148.77793837 -76.37238508 140.91226508 -73.96118164 133.05908203 C-71.70438329 125.6397744 -69.74929692 118.15356021 -67.81860352 110.64379883 C-66.20273878 104.36307696 -64.50050139 98.12256371 -62.69140625 91.89453125 C-61.56468552 87.99571982 -60.47694786 84.08707446 -59.39453125 80.17578125 C-56.48873308 69.69654111 -53.57753003 59.2190577 -50.62304688 48.75341797 C-49.6965049 45.4507601 -48.78740645 42.14359802 -47.87890625 38.8359375 C-47.28057575 36.69904286 -46.68163885 34.56231789 -46.08203125 32.42578125 C-45.81729004 31.44528809 -45.55254883 30.46479492 -45.27978516 29.45458984 C-42.33798247 19.0980786 -37.51573379 11.79387977 -28.70703125 5.48828125 C-19.29115912 0.58055787 -10.38849871 -0.19879207 0 0 Z " fill="#010000" transform="translate(192.70703125,82.51171875)"/>
<path d="M0 0 C19.53247466 -0.09354197 39.06490372 -0.16402749 58.59755611 -0.20724869 C67.66740861 -0.22785263 76.73712174 -0.25593166 85.80688477 -0.30175781 C93.71433326 -0.34169209 101.62168078 -0.36744857 109.52922732 -0.37635398 C113.71422711 -0.3815576 117.89893812 -0.39374247 122.08384514 -0.42292023 C126.02780797 -0.45019371 129.97136472 -0.45842111 133.9154129 -0.45243073 C135.35811893 -0.45352566 136.80083941 -0.4614085 138.24346352 -0.4768219 C150.21837978 -0.59842367 158.11695338 1.39399732 166.921875 9.66015625 C175.0188918 18.77691013 177.57725296 29.03077884 177.375 40.92578125 C176.48302065 53.86266749 171.55091793 66.71315128 167.72827148 79.00952148 C165.47472242 86.29613818 163.44794016 93.62628043 161.5 101 C158.49407813 112.3727452 155.16158683 123.62254581 151.64501953 134.84716797 C151.03390669 136.88683224 150.50934495 138.93303267 150 141 C127.97296001 141.09348666 105.94595279 141.16400049 83.91875458 141.20724869 C73.69088606 141.2278643 63.4631409 141.25596584 53.23535156 141.30175781 C44.3196703 141.34165614 35.40407839 141.36744009 26.48831034 141.37635398 C21.76847681 141.38156364 17.04889887 141.39378746 12.32914734 141.42292023 C7.88370562 141.45013664 3.43862397 141.45843244 -1.00689316 141.45243073 C-2.63546075 141.45352818 -4.2640408 141.46144502 -5.89253616 141.4768219 C-21.2456364 141.61464061 -21.2456364 141.61464061 -28 137 C-32.80240793 131.95131474 -33.30261452 127.79432264 -33.23632812 121.07177734 C-32.83995492 115.91974466 -31.32459804 111.21133807 -29.75 106.3125 C-29.10047388 104.19734725 -28.45333966 102.08145851 -27.80859375 99.96484375 C-27.49519043 98.94503418 -27.18178711 97.92522461 -26.85888672 96.87451172 C-25.72162044 93.06832265 -24.73921052 89.23701897 -23.8125 85.375 C-22.36907867 79.43006131 -20.76765309 73.55447277 -19.0625 67.6796875 C-17.86828597 63.54384331 -16.7116166 59.39855089 -15.5625 55.25 C-15.24418213 54.10241211 -15.24418213 54.10241211 -14.91943359 52.93164062 C-13.89423089 49.23378175 -12.87162937 45.53521615 -11.8515625 41.8359375 C-9.22909637 32.34213015 -6.54151183 22.86778791 -3.83203125 13.3984375 C-3.45883508 12.09335088 -3.08566595 10.78825654 -2.71252441 9.4831543 C-1.80861446 6.32202701 -0.90443326 3.16097759 0 0 Z " fill="#000000" transform="translate(301,83)"/>
</svg>
